<?xml version="1.0" encoding="utf-8"?>
<!-- Generator: Adobe Illustrator 24.0.1, SVG Export Plug-In . SVG Version: 6.00 Build 0)  -->
<svg version="1.1" id="ic_zpiv" xmlns="http://www.w3.org/2000/svg" xmlns:xlink="http://www.w3.org/1999/xlink" x="0px" y="0px"
	 viewBox="0 0 24 24" style="enable-background:new 0 0 24 24;" xml:space="preserve">
<style type="text/css">
	.st0{fill:#5F3759;}
	.st1{fill:none;}
</style>
<g id="Group_8933">
	<g id="Group_8932">
		<path id="Path_18926" class="st0" d="M8.9,2C5.1,2,2,6.5,2,12s3.1,10,6.9,10s6.9-4.5,6.9-10S12.7,2,8.9,2z M8.9,21.3
			c-3.5,0-6.3-4.1-6.3-9.3s2.8-9.3,6.3-9.3s6.3,4.1,6.3,9.3S12.4,21.3,8.9,21.3L8.9,21.3z"/>
		<path id="Path_18927" class="st0" d="M8.9,3.5C5.6,3.5,3,7.3,3,12s2.6,8.5,5.8,8.5s5.8-3.8,5.8-8.5S12.1,3.5,8.9,3.5z M5.8,12.5
			l3.3-5.6H5.9V6H10v0.8l-3.2,5.5H10v0.8H5.8V12.5z M11.9,15l-0.1,0.1l0,0l0,0l-0.1,0.1c0,0,0,0-0.1,0c0,0,0,0-0.1,0h-0.1
			c-0.2,0.1-0.5,0.2-0.7,0.2H9.2V19H8.6v-4.2h2c0.4,0,0.8-0.2,1.1-0.7c0-0.1,0.1-0.2,0.1-0.2c0-0.1,0.1-0.2,0.1-0.4s0.1-0.4,0.1-0.6
			c0-0.1,0-0.2,0-0.3c0-0.2,0-0.3-0.1-0.5V12c-0.1-0.2-0.2-0.4-0.3-0.6c0-0.1-0.1-0.1-0.1-0.2c0,0,0,0-0.1,0l-0.1-0.1h-0.1
			c-0.1,0-0.1-0.1-0.2-0.1h-0.1c-0.1,0-0.1,0-0.2,0h-0.1h-2l0.5-0.8h1.6c0.2,0,0.5,0.1,0.7,0.2h0.1l0.1,0.1c0.1,0,0.1,0.1,0.2,0.1
			c0,0,0,0,0.1,0.1c0.5,0.5,0.7,1.3,0.7,2.2C12.6,13.7,12.4,14.5,11.9,15z"/>
	</g>
</g>
<path id="Rectangle_4542" class="st1" d="M0,0h24v24H0V0z"/>
</svg>
