<?xml version="1.0" encoding="utf-8"?>
<!-- Generator: Adobe Illustrator 24.0.1, SVG Export Plug-In . SVG Version: 6.00 Build 0)  -->
<svg version="1.1"
	 id="svg10" xmlns:cc="http://creativecommons.org/ns#" xmlns:dc="http://purl.org/dc/elements/1.1/" xmlns:rdf="http://www.w3.org/1999/02/22-rdf-syntax-ns#" xmlns:svg="http://www.w3.org/2000/svg"
	 xmlns="http://www.w3.org/2000/svg" xmlns:xlink="http://www.w3.org/1999/xlink" x="0px" y="0px" viewBox="0 0 24 40"
	 style="enable-background:new 0 0 24 40;" xml:space="preserve">
<style type="text/css">
	.st0{fill:none;}
	.st1{fill:#5F3759;}
</style>
<title  id="title2">Address</title>
<desc  id="desc4">Created with Sketch.</desc>
<g id="g57" transform="matrix(0.85833333,0,0,0.85833322,1,12.400003)">
	<path id="path2" class="st0" d="M0,0h24v24H0V0z M0,0h24v24H0V0z M0,0h24v24H0V0z"/>
	<path id="path4" class="st1" d="M20,0H4v2h16V0z M4,24h16v-2H4V24z M20,4H4C2.9,4,2,4.9,2,6v12c0,1.1,0.9,2,2,2h16c1.1,0,2-0.9,2-2
		V6C22,4.9,21.1,4,20,4z M12,6.8c1.2,0,2.3,1,2.3,2.3s-1,2.3-2.3,2.3s-2.3-1-2.3-2.3S10.8,6.8,12,6.8z M17,17H7v-1.5
		c0-1.7,3.3-2.5,5-2.5s5,0.8,5,2.5V17z"/>
</g>
</svg>
