<?xml version="1.0" encoding="utf-8"?>
<!-- Generator: Adobe Illustrator 24.0.1, SVG Export Plug-In . SVG Version: 6.00 Build 0)  -->
<svg version="1.1"
	 id="svg9" xmlns:cc="http://creativecommons.org/ns#" xmlns:dc="http://purl.org/dc/elements/1.1/" xmlns:rdf="http://www.w3.org/1999/02/22-rdf-syntax-ns#" xmlns:svg="http://www.w3.org/2000/svg"
	 xmlns="http://www.w3.org/2000/svg" xmlns:xlink="http://www.w3.org/1999/xlink" x="0px" y="0px" viewBox="0 0 24 40"
	 style="enable-background:new 0 0 24 40;" xml:space="preserve">
<style type="text/css">
	.st0{fill:none;}
	.st1{fill-rule:evenodd;clip-rule:evenodd;fill:#5F3759;}
</style>
<title  id="title2">Settings</title>
<desc  id="desc4">Created with Sketch.</desc>
<g id="Settings">
	<g id="g6" transform="translate(0,12.4)">
		<path id="path2" class="st0" d="M0,0h24v24H0V0z"/>
		<path id="path4" class="st1" d="M19.1,12.9c0-0.3,0.1-0.6,0.1-0.9c0-0.3,0-0.6-0.1-0.9l2-1.6c0.2-0.1,0.2-0.4,0.1-0.6l-1.9-3.3
			c-0.1-0.2-0.4-0.3-0.6-0.2l-2.4,1c-0.5-0.4-1-0.7-1.6-0.9L14.3,3c0-0.2-0.2-0.4-0.5-0.4H10C9.8,2.6,9.6,2.8,9.5,3L9.3,5.3
			c-0.6,0.3-1.2,0.6-1.7,1l-2.4-1C5,5.2,4.8,5.3,4.7,5.5l-2,3.4c-0.1,0.2,0,0.4,0.2,0.6l2,1.6c0,0.3-0.1,0.6-0.1,0.9s0,0.6,0.1,0.9
			l-2,1.6c-0.2,0.1-0.2,0.4-0.1,0.6l1.9,3.3c0.1,0.2,0.4,0.3,0.6,0.2l2.4-1c0.5,0.4,1,0.7,1.6,0.9L9.7,21c0.1,0.2,0.2,0.4,0.5,0.4
			H14c0.2,0,0.4-0.2,0.5-0.4l0.4-2.5c0.6-0.2,1.1-0.6,1.6-0.9l2.4,1c0.2,0.1,0.5,0,0.6-0.2l1.9-3.3c0.1-0.2,0.1-0.5-0.1-0.6
			L19.1,12.9z M12,15.6c-2,0-3.6-1.6-3.6-3.6S10,8.4,12,8.4s3.6,1.6,3.6,3.6S14,15.6,12,15.6z"/>
	</g>
</g>
</svg>
