<?xml version="1.0" encoding="utf-8"?>
<!-- Generator: Adobe Illustrator 24.0.1, SVG Export Plug-In . SVG Version: 6.00 Build 0)  -->
<svg version="1.1"
	 id="ic_empty_zpiv" xmlns:cc="http://creativecommons.org/ns#" xmlns:dc="http://purl.org/dc/elements/1.1/" xmlns:rdf="http://www.w3.org/1999/02/22-rdf-syntax-ns#" xmlns:svg="http://www.w3.org/2000/svg"
	 xmlns="http://www.w3.org/2000/svg" xmlns:xlink="http://www.w3.org/1999/xlink" x="0px" y="0px" viewBox="0 0 100 100"
	 style="enable-background:new 0 0 100 100;" xml:space="preserve">
<style type="text/css">
	.st0{fill:#5F3759;}
	.st1{fill:#666666;}
</style>
<g id="Group_9086">
	<path id="Path_19031" class="st0" d="M50,26c-13.3,0-24,10.7-24,24s10.7,24,24,24s24-10.7,24-24S63.3,26,50,26z M50,68
		c-9.9,0-18-8.1-18-18s8.1-18,18-18s18,8.1,18,18S59.9,68,50,68z"/>
	<g id="Group_9085">
		<g id="Group_9083">
			<path id="Rectangle_4749" class="st1" d="M83,56h2v4h-2V56z"/>
			<path id="Rectangle_4750" class="st1" d="M83,44h2v8h-2V44z"/>
			<path id="Rectangle_4751" class="st1" d="M15,48h2v8h-2V48z"/>
			<path id="Rectangle_4752" class="st1" d="M15,40h2v4h-2V40z"/>
			<path id="Path_19033" class="st1" d="M95.2,71H85v-7h-2v9h7.8L76,90.5L61.2,73H68v-2h-4.5c11.6-7.5,15-22.9,7.5-34.5
				c-6.4-9.9-18.9-14-29.9-9.8L24,6.5L4.8,29H15v7h2v-9H9.2L24,9.5L38.8,27H32v2h4.5c-11.6,7.5-15,22.9-7.5,34.5
				c6.4,9.9,18.9,14,29.9,9.8L76,93.5L95.2,71z M27,50c0-12.7,10.3-23,23-23s23,10.3,23,23S62.7,73,50,73S27,62.7,27,50z"/>
		</g>
	</g>
</g>
<ellipse id="circle14" class="st0" cx="50" cy="50" rx="20.2" ry="20.7"/>
</svg>
